<?xml version="1.0" encoding="UTF-8" standalone="no"?>
<!-- Created with Inkscape (http://www.inkscape.org/) -->

<svg
   xmlns:dc="http://purl.org/dc/elements/1.1/"
   xmlns:cc="http://creativecommons.org/ns#"
   xmlns:rdf="http://www.w3.org/1999/02/22-rdf-syntax-ns#"
   xmlns:svg="http://www.w3.org/2000/svg"
   xmlns="http://www.w3.org/2000/svg"
   xmlns:sodipodi="http://sodipodi.sourceforge.net/DTD/sodipodi-0.dtd"
   xmlns:inkscape="http://www.inkscape.org/namespaces/inkscape"
   width="156.52861mm"
   height="26.550291mm"
   viewBox="0 0 156.52861 26.550291"
   version="1.1"
   id="svg8"
   inkscape:version="0.92.4 (5da689c313, 2019-01-14)"
   sodipodi:docname="logo.svg">
  <defs
     id="defs2">
    <style
       id="style834"
       type="text/css">
   
    .fil0 {fill:black}
   
  </style>
  </defs>
  <sodipodi:namedview
     id="base"
     pagecolor="#ffffff"
     bordercolor="#666666"
     borderopacity="1.0"
     inkscape:pageopacity="0.0"
     inkscape:pageshadow="2"
     inkscape:zoom="0.7"
     inkscape:cx="-189.74116"
     inkscape:cy="-158.59182"
     inkscape:document-units="mm"
     inkscape:current-layer="layer1"
     showgrid="false"
     inkscape:window-width="1920"
     inkscape:window-height="1001"
     inkscape:window-x="-9"
     inkscape:window-y="-9"
     inkscape:window-maximized="1" />
  <metadata
     id="metadata5">
    <rdf:RDF>
      <cc:Work
         rdf:about="">
        <dc:format>image/svg+xml</dc:format>
        <dc:type
           rdf:resource="http://purl.org/dc/dcmitype/StillImage" />
        <dc:title />
      </cc:Work>
    </rdf:RDF>
  </metadata>
  <g
     inkscape:label="Layer 1"
     inkscape:groupmode="layer"
     id="layer1"
     transform="translate(-25.541002,-11.999999)">
    <g
       id="g832">
      <path
         style="fill:#000000;stroke-width:0.26458335"
         id="path815"
         d="m 55.054213,15.6109 -1.787112,0.453976 v 3.444904 l 1.787112,-0.461313 z m 5.463752,17.106878 0.143991,0.03912 0.241797,0.06847 3.517985,0.99598 V 19.402195 l -3.903773,-1.083732 z m 7.671164,-16.230439 -7.63693,-2.27532 -0.03399,0.0098 v 3.432677 l 8.100406,2.250869 v -3.290861 l -0.178216,-0.0538 z m -3.127588,17.51467 3.557107,1.00576 v -5.429797 l -3.557107,-1.830853 z m -9.367792,-15.11981 4.641103,-1.196207 v -3.417735 l -4.641103,1.179091 z m -2.426648,15.734894 6.665124,-1.796892 0.243973,-0.06575 0.158654,-0.0413 V 18.345359 l -7.067751,1.823789 z m 11.79444,-7.590197 3.557107,1.833568 v -8.293577 l -3.557107,-0.98647 z m 3.740221,-10.422462 v 3.293305 l 7.983594,-2.138665 v -3.361769 l -7.588021,2.099814 -0.254026,0.06847 z m -0.09016,-1.867802 -8.120245,-2.416865 -9.148011,2.326668 V 37 l 8.964898,-2.416867 8.393554,2.37068 c 0,0 8.154478,-2.165561 8.91138,-2.360627 0.75418,-0.19561 0.898171,-0.398283 0.898171,-1.16741 0,-0.380896 0,-21.425777 0,-21.425777 z m 8.986635,18.915997 -8.889098,2.35601 -8.154478,-2.304391 -0.241796,-0.06846 -0.243973,0.06575 -7.812434,2.107152 V 15.35444 l 8.215338,-2.087319 7.878449,2.343785 0.251581,0.07552 0.251572,-0.06847 8.744839,-2.419311 z m -8.896439,1.406487 0.01489,0.0025 6.069341,-1.606444 V 28.01342 l -6.084282,1.596664 z m 0,-6.110899 7.983594,-2.094653 v -8.432678 l -7.983594,2.138666 z m 6.721096,4.336013 1.262221,-0.334438 v -5.437133 l -1.262221,0.332265 z"
         inkscape:connector-curvature="0" />
      <g
         transform="matrix(0.07886435,0,0,0.07886435,23.175072,11.369086)"
         id="g840"
         style="clip-rule:evenodd;fill:#000000;fill-rule:evenodd;stroke-width:0.94752759;image-rendering:optimizeQuality;shape-rendering:geometricPrecision;text-rendering:geometricPrecision">
        <path
           id="path838"
           d="m 281,8 c 12,0 22,10 22,23 v 272 c 0,12 -10,22 -22,22 H 52 C 40,325 30,315 30,303 V 92 h 58 c 12,0 22,-11 22,-23 V 8 Z M 77,135 h 179 c 11,0 11,16 0,16 H 77 c -10,0 -10,-16 0,-16 z m 0,127 h 73 c 11,0 11,15 0,15 H 77 c -10,0 -10,-15 0,-15 z m 0,-42 h 179 c 11,0 11,15 0,15 H 77 c -10,0 -10,-15 0,-15 z m 0,-42 h 179 c 11,0 11,15 0,15 H 77 c -10,0 -10,-15 0,-15 z M 97,69 c 0,5 -4,9 -9,9 H 43 L 97,22 Z"
           class="fil0"
           inkscape:connector-curvature="0"
           style="fill:#000000;stroke-width:0.94752759" />
      </g>
      <text
         id="text868"
         y="33.440525"
         x="83.644615"
         style="font-style:normal;font-weight:normal;font-size:7.76111126px;line-height:1.25;font-family:sans-serif;letter-spacing:0px;word-spacing:0px;fill:#000000;fill-opacity:1;stroke:none;stroke-width:0.26458332"
         xml:space="preserve"><tspan
           style="font-size:25.39999962px;fill:#000000;stroke-width:0.26458332"
           y="33.440525"
           x="83.644615"
           id="tspan866"
           sodipodi:role="line">PubMap</tspan></text>
    </g>
  </g>
</svg>
